<mxfile host="app.diagrams.net" agent="Mozilla/5.0 (Windows NT 10.0; Win64; x64) AppleWebKit/537.36 (KHTML, like Gecko) Chrome/131.0.0.0 Safari/537.36" version="25.0.3">
  <diagram name="หน้า-1" id="BgyPzzf-esAgST8voHFG">
    <mxGraphModel dx="1034" dy="446" grid="1" gridSize="10" guides="1" tooltips="1" connect="1" arrows="1" fold="1" page="1" pageScale="1" pageWidth="827" pageHeight="1169" math="0" shadow="0">
      <root>
        <mxCell id="0" />
        <mxCell id="1" parent="0" />
        <mxCell id="-FO8VqTCbecmD_ibJTw_-3" value="" style="edgeStyle=orthogonalEdgeStyle;rounded=0;orthogonalLoop=1;jettySize=auto;html=1;" edge="1" parent="1" source="-FO8VqTCbecmD_ibJTw_-1" target="-FO8VqTCbecmD_ibJTw_-2">
          <mxGeometry relative="1" as="geometry" />
        </mxCell>
        <mxCell id="-FO8VqTCbecmD_ibJTw_-1" value="start" style="strokeWidth=2;html=1;shape=mxgraph.flowchart.terminator;whiteSpace=wrap;" vertex="1" parent="1">
          <mxGeometry x="360" y="100" width="100" height="60" as="geometry" />
        </mxCell>
        <mxCell id="-FO8VqTCbecmD_ibJTw_-5" value="" style="edgeStyle=orthogonalEdgeStyle;rounded=0;orthogonalLoop=1;jettySize=auto;html=1;" edge="1" parent="1" source="-FO8VqTCbecmD_ibJTw_-2" target="-FO8VqTCbecmD_ibJTw_-4">
          <mxGeometry relative="1" as="geometry" />
        </mxCell>
        <mxCell id="-FO8VqTCbecmD_ibJTw_-2" value="int a ;&lt;div&gt;int b ;&lt;/div&gt;&lt;div&gt;int c ;&lt;/div&gt;" style="whiteSpace=wrap;html=1;strokeWidth=2;" vertex="1" parent="1">
          <mxGeometry x="350" y="240" width="120" height="60" as="geometry" />
        </mxCell>
        <mxCell id="-FO8VqTCbecmD_ibJTw_-7" value="" style="edgeStyle=orthogonalEdgeStyle;rounded=0;orthogonalLoop=1;jettySize=auto;html=1;" edge="1" parent="1" source="-FO8VqTCbecmD_ibJTw_-4" target="-FO8VqTCbecmD_ibJTw_-6">
          <mxGeometry relative="1" as="geometry" />
        </mxCell>
        <mxCell id="-FO8VqTCbecmD_ibJTw_-4" value="แสดงคำว่า Enter 3 Number :" style="shape=parallelogram;perimeter=parallelogramPerimeter;whiteSpace=wrap;html=1;fixedSize=1;strokeWidth=2;" vertex="1" parent="1">
          <mxGeometry x="315" y="380" width="190" height="60" as="geometry" />
        </mxCell>
        <mxCell id="-FO8VqTCbecmD_ibJTw_-9" value="" style="edgeStyle=orthogonalEdgeStyle;rounded=0;orthogonalLoop=1;jettySize=auto;html=1;" edge="1" parent="1" source="-FO8VqTCbecmD_ibJTw_-6" target="-FO8VqTCbecmD_ibJTw_-8">
          <mxGeometry relative="1" as="geometry" />
        </mxCell>
        <mxCell id="-FO8VqTCbecmD_ibJTw_-6" value="รับค่า 3 ตัวเลข" style="shape=parallelogram;perimeter=parallelogramPerimeter;whiteSpace=wrap;html=1;fixedSize=1;strokeWidth=2;" vertex="1" parent="1">
          <mxGeometry x="315" y="520" width="190" height="60" as="geometry" />
        </mxCell>
        <mxCell id="-FO8VqTCbecmD_ibJTw_-11" value="" style="edgeStyle=orthogonalEdgeStyle;rounded=0;orthogonalLoop=1;jettySize=auto;html=1;" edge="1" parent="1" source="-FO8VqTCbecmD_ibJTw_-8" target="-FO8VqTCbecmD_ibJTw_-10">
          <mxGeometry relative="1" as="geometry" />
        </mxCell>
        <mxCell id="-FO8VqTCbecmD_ibJTw_-8" value="แสดงคำตอบ Anwer =" style="shape=parallelogram;perimeter=parallelogramPerimeter;whiteSpace=wrap;html=1;fixedSize=1;strokeWidth=2;" vertex="1" parent="1">
          <mxGeometry x="315" y="660" width="190" height="60" as="geometry" />
        </mxCell>
        <mxCell id="-FO8VqTCbecmD_ibJTw_-10" value="end" style="strokeWidth=2;html=1;shape=mxgraph.flowchart.terminator;whiteSpace=wrap;" vertex="1" parent="1">
          <mxGeometry x="360" y="770" width="100" height="60" as="geometry" />
        </mxCell>
      </root>
    </mxGraphModel>
  </diagram>
</mxfile>
